<svg width="236" height="194" viewBox="0 0 236 194" fill="none" xmlns="http://www.w3.org/2000/svg">
<path d="M118.672 193.821C123.345 193.821 127.852 192.821 131.19 190.987L230.667 133.654C234.005 131.654 236.008 128.987 236.008 125.821C236.008 122.154 233.338 118.654 228.831 115.987L133.36 60.9872C124.847 56.1539 112.162 55.6539 104.818 59.8206L5.34103 117.154C2.00287 119.154 -3.05176e-05 121.821 -3.05176e-05 124.987C-3.05176e-05 128.654 2.6705 132.154 7.17703 134.821L102.649 189.821C107.155 192.487 112.997 193.821 118.672 193.821ZM130.188 189.154C123.345 193.154 111.495 192.487 103.65 187.987L8.17847 132.987C4.17267 130.654 2.00287 127.654 2.00287 124.821C2.00287 122.487 3.50505 120.321 6.34248 118.821L105.82 61.4872C112.663 57.6539 124.514 58.1539 132.358 62.6539L227.83 117.654C231.835 119.987 234.005 122.987 234.172 125.821C234.172 128.154 232.67 130.321 229.833 131.821L130.188 189.154Z" fill="url(#paint0_linear_111_14188)"/>
<path opacity="0.5" d="M118.672 165.987C123.345 165.987 127.852 164.987 131.19 163.153L230.667 105.82C234.005 103.82 236.008 101.153 236.008 97.9866C236.008 94.3199 233.338 90.8199 228.831 88.1532L133.36 33.1532C124.847 28.3199 112.162 27.8199 104.818 31.9866L5.34103 89.3199C2.00287 91.3199 -3.05176e-05 93.9866 -3.05176e-05 97.1532C-3.05176e-05 100.82 2.6705 104.32 7.17703 106.987L102.649 161.987C107.155 164.653 112.997 165.987 118.672 165.987ZM130.188 161.487C123.345 165.32 111.495 164.82 103.65 160.32L8.17847 105.32C4.17267 102.987 2.00287 99.9866 2.00287 97.1532C2.00287 94.8199 3.50505 92.6533 6.34248 91.1533L105.82 33.8199C112.663 29.9866 124.514 30.4866 132.358 34.9866L227.83 89.9866C231.835 92.3199 234.005 95.3199 234.172 98.1532C234.172 100.487 232.67 102.653 229.833 104.153L130.188 161.487Z" fill="url(#paint1_linear_111_14188)"/>
<path opacity="0.2" d="M118.672 136.821C123.345 136.821 127.852 135.821 131.19 133.987L230.667 76.6539C234.005 74.6539 236.008 71.9872 236.008 68.8205C236.008 65.1539 233.338 61.6539 228.831 58.9872L133.36 3.98722C124.847 -0.846115 112.162 -1.34608 104.818 2.82058L5.34103 60.1539C2.00287 62.1539 -3.05176e-05 64.8205 -3.05176e-05 67.9872C-3.05176e-05 71.6539 2.6705 75.1539 7.17703 77.8206L102.649 132.821C107.155 135.487 112.997 136.821 118.672 136.821ZM130.188 132.321C123.345 136.154 111.495 135.654 103.65 131.154L8.17847 76.1539C4.17267 73.8206 2.00287 70.8205 2.00287 67.9872C2.00287 65.6539 3.50505 63.4872 6.34248 61.9872L105.82 4.65387C112.663 0.820541 124.514 1.32056 132.358 5.82056L227.83 60.8206C231.835 63.1539 234.005 66.1539 234.172 68.9872C234.172 71.3205 232.67 73.4872 229.833 74.9872L130.188 132.321Z" fill="url(#paint2_linear_111_14188)"/>
<defs>
<linearGradient id="paint0_linear_111_14188" x1="235.874" y1="125.323" x2="-0.253225" y2="125.323" gradientUnits="userSpaceOnUse">
<stop stop-color="#D4088C"/>
<stop offset="0.2258" stop-color="#D4088C"/>
<stop offset="0.5108" stop-color="#6EE1F8"/>
<stop offset="0.7796" stop-color="#6EE8FC"/>
<stop offset="1" stop-color="#6EE8FC"/>
</linearGradient>
<linearGradient id="paint1_linear_111_14188" x1="235.874" y1="97.5449" x2="-0.253225" y2="97.5449" gradientUnits="userSpaceOnUse">
<stop stop-color="#D4088C"/>
<stop offset="0.2258" stop-color="#D4088C"/>
<stop offset="0.5108" stop-color="#6EE1F8"/>
<stop offset="0.7796" stop-color="#6EE8FC"/>
<stop offset="1" stop-color="#6EE8FC"/>
</linearGradient>
<linearGradient id="paint2_linear_111_14188" x1="235.874" y1="68.4022" x2="-0.253225" y2="68.4022" gradientUnits="userSpaceOnUse">
<stop stop-color="#D4088C"/>
<stop offset="0.2258" stop-color="#D4088C"/>
<stop offset="0.5108" stop-color="#6EE1F8"/>
<stop offset="0.7796" stop-color="#6EE8FC"/>
<stop offset="1" stop-color="#6EE8FC"/>
</linearGradient>
</defs>
</svg>
